// Untitled
// David William Hearn
// Created with StaffPad Editor

<global>
xfout_locc1=127
xfin_hicc1=127
ampeg_sustain=100
xfout_hicc1=127
ampeg_decay=0
xf_cccurve=gain
amp_veltrack=0
ampeg_attack=0
ampeg_release=0.25
xfin_locc1=0


<group>
group_label=Group


<region>
sample=Bassflute_turn_min_PP_A#3.opus
hivel=127
key=A#3
lovel=0
offset=570

<region>
sample=Bassflute_turn_min_PP_A#4.opus
hivel=127
key=A#4
lovel=0
offset=551

<region>
sample=Bassflute_turn_min_PP_A#5.opus
hivel=127
key=A#5
lovel=0
offset=990

<region>
sample=Bassflute_turn_min_PP_A3.opus
hivel=127
key=A3
lovel=0
offset=784

<region>
sample=Bassflute_turn_min_PP_A4.opus
hivel=127
key=A4
lovel=0
offset=1470

<region>
sample=Bassflute_turn_min_PP_A5.opus
hivel=127
key=A5
lovel=0
offset=2370

<region>
sample=Bassflute_turn_min_PP_B3.opus
hivel=127
key=B3
lovel=0
offset=724

<region>
sample=Bassflute_turn_min_PP_B4.opus
hivel=127
key=B4
lovel=0
offset=1947

<region>
sample=Bassflute_turn_min_PP_C#3.opus
hivel=127
key=C#3
lovel=0
offset=915

<region>
sample=Bassflute_turn_min_PP_C#4.opus
hivel=127
key=C#4
lovel=0
offset=218

<region>
sample=Bassflute_turn_min_PP_C#5.opus
hivel=127
key=C#5
lovel=0
offset=693

<region>
sample=Bassflute_turn_min_PP_C4.opus
hivel=127
key=C4
lovel=0
offset=612

<region>
sample=Bassflute_turn_min_PP_C5.opus
hivel=127
key=C5
lovel=0
offset=1838

<region>
sample=Bassflute_turn_min_PP_D#3.opus
hivel=127
key=D#3
lovel=0
offset=768

<region>
sample=Bassflute_turn_min_PP_D#4.opus
hivel=127
key=D#4
lovel=0
offset=2463

<region>
sample=Bassflute_turn_min_PP_D#5.opus
hivel=127
key=d#5
lovel=0
offset=2096

<region>
sample=Bassflute_turn_min_PP_D3.opus
hivel=127
key=D3
lovel=0
offset=1732

<region>
sample=Bassflute_turn_min_PP_D4.opus
hivel=127
key=D4
lovel=0
offset=483

<region>
sample=Bassflute_turn_min_PP_D5.opus
hivel=127
key=D5
lovel=0
offset=1556

<region>
sample=Bassflute_turn_min_PP_E3.opus
hivel=127
key=E3
lovel=0
offset=390

<region>
sample=Bassflute_turn_min_PP_E4.opus
hivel=127
key=E4
lovel=0
offset=671

<region>
sample=Bassflute_turn_min_PP_E5.opus
hivel=127
key=E5
lovel=0
offset=2396

<region>
sample=Bassflute_turn_min_PP_F#3.opus
hivel=127
key=F#3
lovel=0
offset=1328

<region>
sample=Bassflute_turn_min_PP_F#4.opus
hivel=127
key=F#4
lovel=0
offset=734

<region>
sample=Bassflute_turn_min_PP_F#5.opus
hivel=127
key=F#5
lovel=0
offset=1867

<region>
sample=Bassflute_turn_min_PP_F3.opus
hivel=127
key=F3
lovel=0
offset=89

<region>
sample=Bassflute_turn_min_PP_F4.opus
hivel=127
key=F4
lovel=0
offset=617

<region>
sample=Bassflute_turn_min_PP_F5.opus
hivel=127
key=F5
lovel=0
offset=2819

<region>
sample=Bassflute_turn_min_PP_G#3.opus
hivel=127
key=G#3
lovel=0
offset=2987

<region>
sample=Bassflute_turn_min_PP_G#4.opus
hivel=127
key=G#4
lovel=0
offset=1093

<region>
sample=Bassflute_turn_min_PP_G#5.opus
key=g#5
offset=985

<region>
sample=Bassflute_turn_min_PP_G3.opus
hivel=127
key=G3
lovel=0
offset=1758

<region>
sample=Bassflute_turn_min_PP_G4.opus
hivel=127
key=g4
loop_mode=no_loop
lovel=0
offset=969

<region>
sample=Bassflute_turn_min_PP_G5.opus
hivel=127
key=G5
lovel=0
offset=1601

